<svg xmlns="http://www.w3.org/2000/svg" width="512" height="512" style="shape-rendering:geometricPrecision;text-rendering:geometricPrecision;image-rendering:optimizeQuality;fill-rule:evenodd;clip-rule:evenodd"><path style="opacity:.971" fill="#010100" d="M245.5-.5h18c-1.6 13.365.567 26.032 6.5 38a55.782 55.782 0 0 1 4.5 5.5c54.512-7.056 100.345 9.444 137.5 49.5 16.85 19.7 27.183 42.366 31 68-.807 3.473-2.973 5.64-6.5 6.5a552.248 552.248 0 0 1-28 4c42.347 49.528 58.514 106.695 48.5 171.5-17.105 80.099-64.271 133.599-141.5 160.5-13.582 3.925-27.248 6.758-41 8.5h-39c-81.451-11.308-138.618-54.641-171.5-130-22.674-63.187-17.34-123.854 16-182 38.739-59.811 93.906-92.477 165.5-98V-.5zm18 61c4.262 15.029 10.595 29.195 19 42.5a284.508 284.508 0 0 1-19-1.5v-41z"/><path style="opacity:1" fill="#5e9339" d="M400.5 107.5c-18.596 4.641-37.596 6.141-57 4.5a351.603 351.603 0 0 1-35-4.5c-12.239-13.126-20.906-28.46-26-46 46.267-6.185 85.1 8.148 116.5 43l1.5 3z"/><path style="opacity:1" fill="#558540" d="M308.5 107.5a351.603 351.603 0 0 0 35 4.5c19.404 1.641 38.404.141 57-4.5 10.803 12.936 18.469 27.602 23 44-38.897 4.864-73.23-5.303-103-30.5-4.602-4.094-8.602-8.594-12-13.5z"/><path style="opacity:1" fill="#f88400" d="M390.5 177.5c-20.095 113.773-79.429 200.273-178 259.5a323.642 323.642 0 0 1-60 26.5c-48.192-32.112-76.359-77.112-84.5-135-5.789-77.76 23.378-138.26 87.5-181.5 27.868-17.345 58.201-26.512 91-27.5v23c-4.528-.678-8.695-2.345-12.5-5a200.194 200.194 0 0 0-9.5 14c17.663 10.637 35.997 11.804 55 3.5a26.091 26.091 0 0 0 5-3.5 153.95 153.95 0 0 0-8-12.5c-4.054.625-8.054 1.792-12 3.5a133.155 133.155 0 0 1-1-23 123.288 123.288 0 0 1 37 5.5c22.273 22.973 49.273 37.306 81 43a120.087 120.087 0 0 1 9 9.5z"/><path style="opacity:1" fill="#0d0601" d="M146.5 175.5a104.137 104.137 0 0 1 11 13 161.298 161.298 0 0 1-11.5 10c-4.922-2.752-9.088-6.418-12.5-11 4.38-4.05 8.713-8.05 13-12z"/><path style="opacity:1" fill="#f07800" d="M390.5 177.5c39.457 42.872 56.291 93.539 50.5 152-11.892 72.875-51.726 123.708-119.5 152.5-59.554 21.38-115.887 15.213-169-18.5a323.642 323.642 0 0 0 60-26.5c98.571-59.227 157.905-145.727 178-259.5z"/><path style="opacity:1" fill="#050200" d="M121.5 200.5a101.97 101.97 0 0 1 13 11c-18.487 23.119-29.154 49.452-32 79a590.017 590.017 0 0 1-17-2c3.614-32.861 15.614-62.195 36-88z"/><path style="opacity:1" fill="#683103" d="M357.5 229.5c-.989-5.475-1.322-11.142-1-17h18v18c-5.858.322-11.525-.011-17-1z"/><path style="opacity:1" d="M357.5 229.5v-16h16v16h-16z"/><path style="opacity:1" fill="#0d0400" d="M391.5 264.5h17v17h-17v-17z"/><path style="opacity:1" fill="#0a0400" d="M305.5 383.5h17v17h-17v-17z"/><path style="opacity:1" fill="#6b3101" d="M357.5 392.5c5.475-.989 11.142-1.322 17-1v18h-18c-.322-5.858.011-11.525 1-17z"/><path style="opacity:1" d="M357.5 392.5h16v16h-16v-16z"/><path style="opacity:1" fill="#050100" d="M280.5 434.5h17v17h-17v-17z"/></svg>